<svg xmlns="http://www.w3.org/2000/svg" viewBox="0 0 1120 200" width="1120" height="200" role="img" aria-label="XNova">
	<defs>
		<linearGradient id="xb-ciel" x1="0" y1="0" x2="1" y2="1">
			<stop offset="0" stop-color="#04070f"/>
			<stop offset=".55" stop-color="#0b1730"/>
			<stop offset="1" stop-color="#160b26"/>
		</linearGradient>
		<radialGradient id="xb-nebuleuse" cx="50%" cy="50%" r="50%">
			<stop offset="0" stop-color="#7b4bd8" stop-opacity=".42"/>
			<stop offset="1" stop-color="#7b4bd8" stop-opacity="0"/>
		</radialGradient>
		<radialGradient id="xb-globe" cx="34%" cy="26%" r="88%">
			<stop offset="0" stop-color="#c8e9ff"/>
			<stop offset="32%" stop-color="#2f7fbe"/>
			<stop offset="72%" stop-color="#123c60"/>
			<stop offset="1" stop-color="#040d18"/>
		</radialGradient>
		<pattern id="xb-etoiles" width="140" height="120" patternUnits="userSpaceOnUse">
			<circle cx="16" cy="22" r="1.1" fill="#fff" opacity=".85"/>
			<circle cx="58" cy="12" r=".7" fill="#cfe6ff" opacity=".6"/>
			<circle cx="96" cy="34" r="1.3" fill="#fff" opacity=".75"/>
			<circle cx="126" cy="18" r=".7" fill="#ffe9c4" opacity=".6"/>
			<circle cx="34" cy="60" r=".9" fill="#fff" opacity=".55"/>
			<circle cx="76" cy="74" r="1" fill="#e6f0ff" opacity=".7"/>
			<circle cx="118" cy="66" r=".7" fill="#fff" opacity=".5"/>
			<circle cx="10" cy="98" r="1.2" fill="#fff" opacity=".7"/>
			<circle cx="54" cy="108" r=".8" fill="#cfe6ff" opacity=".5"/>
			<circle cx="92" cy="96" r="1" fill="#fff" opacity=".6"/>
			<circle cx="132" cy="104" r=".7" fill="#fff" opacity=".45"/>
		</pattern>
		<clipPath id="xb-cadre"><rect width="1120" height="200" rx="10"/></clipPath>
	</defs>
	<g clip-path="url(#xb-cadre)">
		<rect width="1120" height="200" fill="url(#xb-ciel)"/>
		<rect width="1120" height="200" fill="url(#xb-etoiles)"/>
		<ellipse cx="840" cy="46" rx="380" ry="150" fill="url(#xb-nebuleuse)"/>
		<ellipse cx="170" cy="172" rx="300" ry="130" fill="url(#xb-nebuleuse)" opacity=".65"/>
		<circle cx="934" cy="236" r="152" fill="url(#xb-globe)"/>
		<circle cx="934" cy="236" r="152" fill="none" stroke="#8fd9ff" stroke-width="1.5" opacity=".35"/>
		<path d="M934 84a152 152 0 0 1 132 76" fill="none" stroke="#bfe9ff" stroke-width="2" opacity=".28"/>
	</g>
</svg>
